<svg>
    <symbol id="profile" viewBox="0 0 18 18" fill="none" xmlns="http://www.w3.org/2000/svg">
        <path d="M1 15C1 13.9391 1.42143 12.9217 2.17157 12.1716C2.92172 11.4214 3.93913 11 5 11H13C14.0609 11 15.0783 11.4214 15.8284 12.1716C16.5786 12.9217 17 13.9391 17 15C17 15.5304 16.7893 16.0391 16.4142 16.4142C16.0391 16.7893 15.5304 17 15 17H3C2.46957 17 1.96086 16.7893 1.58579 16.4142C1.21071 16.0391 1 15.5304 1 15Z"
              stroke="current" stroke-width="2" stroke-linejoin="round"/>
        <path d="M9 7C10.6569 7 12 5.65685 12 4C12 2.34315 10.6569 1 9 1C7.34315 1 6 2.34315 6 4C6 5.65685 7.34315 7 9 7Z"
              stroke="current" stroke-width="2"/>
    </symbol>
    <symbol id="search" viewBox="0 0 18 18" fill="inherit" xmlns="http://www.w3.org/2000/svg">
        <path d="M6.72554 14.2553C8.33807 14.4401 9.96037 14.0418 11.3012 13.1377L15.0802 16.9166C15.0802 16.9166 15.0802 16.9167 15.0802 16.9167C15.324 17.1606 15.6546 17.2976 15.9994 17.2978C16.3442 17.2979 16.6749 17.161 16.9189 16.9173C17.1628 16.6735 17.2999 16.3429 17.3 15.998C17.3001 15.6532 17.1633 15.3225 16.9195 15.0786L16.9194 15.0785L13.1395 11.2985C14.0433 9.95678 14.4408 8.33365 14.2547 6.72071C14.0584 5.01832 13.2265 3.45284 11.9255 2.33746C10.6245 1.22208 8.95035 0.639064 7.23795 0.705046C5.52555 0.771028 3.9012 1.48114 2.68989 2.69333C1.47857 3.90551 0.769617 5.53036 0.704861 7.24281C0.640104 8.95526 1.22432 10.629 2.34063 11.9292C3.45694 13.2294 5.02302 14.0602 6.72554 14.2553ZM12.7004 7.4979C12.7004 8.18075 12.566 8.85691 12.3046 9.48778C12.0433 10.1186 11.6603 10.6919 11.1775 11.1747C10.6946 11.6576 10.1214 12.0406 9.49053 12.3019C8.85966 12.5632 8.1835 12.6977 7.50065 12.6977C6.81781 12.6977 6.14165 12.5632 5.51078 12.3019C4.87991 12.0406 4.30669 11.6576 3.82384 11.1747C3.341 10.6919 2.95799 10.1186 2.69667 9.48778C2.43536 8.85691 2.30086 8.18075 2.30086 7.4979C2.30086 6.11883 2.84869 4.79625 3.82384 3.82109C4.79899 2.84594 6.12158 2.29811 7.50065 2.29811C8.87972 2.29811 10.2023 2.84594 11.1775 3.82109C12.1526 4.79625 12.7004 6.11883 12.7004 7.4979Z"
              fill="current" stroke="current" stroke-width="0.6"/>
    </symbol>
    <symbol id="fire" viewBox="0 0 14 19" fill="inherit" xmlns="http://www.w3.org/2000/svg">
        <path d="M13.8312 9.30092L4.92103 18.7997C4.82661 18.9 4.70197 18.967 4.56593 18.9906C4.42989 19.0142 4.28982 18.9931 4.16687 18.9306C4.04392 18.868 3.94475 18.7674 3.88433 18.6438C3.82391 18.5203 3.80552 18.3805 3.83193 18.2456L4.9982 12.4411L0.413462 10.7281C0.314998 10.6915 0.227192 10.6311 0.157887 10.5525C0.0885818 10.4738 0.039937 10.3793 0.0162984 10.2774C-0.00734031 10.1755 -0.00523652 10.0693 0.0224216 9.96839C0.0500798 9.86748 0.102431 9.77495 0.174798 9.69908L9.08492 0.200261C9.17934 0.0999974 9.30398 0.0330115 9.44002 0.00941147C9.57606 -0.0141886 9.71613 0.00687783 9.83908 0.0694317C9.96203 0.131986 10.0612 0.232633 10.1216 0.356185C10.182 0.479738 10.2004 0.619492 10.174 0.754359L9.00457 6.56526L13.5893 8.27584C13.687 8.31273 13.7741 8.37301 13.8429 8.45135C13.9117 8.52969 13.96 8.62368 13.9836 8.72501C14.0072 8.82633 14.0053 8.93188 13.9782 9.03233C13.951 9.13278 13.8994 9.22502 13.828 9.30092H13.8312Z"
              fill="current" stroke="current"/>
    </symbol>
    <symbol id="hot" viewBox="0 0 16 19" fill="none" xmlns="http://www.w3.org/2000/svg">
        <path d="M14.8678 7.13254C14.2794 6.33927 13.6028 5.61345 12.8507 4.96863L12.8347 4.95518C12.7877 4.9032 12.7239 4.86876 12.6542 4.85766C12.5845 4.84656 12.513 4.85948 12.4518 4.89423L12.4534 4.89344C12.3997 4.92002 12.3566 4.96373 12.3313 5.01747C12.3059 5.0712 12.2998 5.13181 12.3137 5.18946V5.18787L12.3025 5.18075C12.703 5.90812 12.9414 6.77321 12.9478 7.69212V7.6937C12.9543 8.25565 12.9181 8.64902 12.9173 8.65614C12.9045 8.73289 12.8889 8.80918 12.8708 8.88488C12.8234 9.11362 12.5072 9.78796 12.0593 9.60275C11.6114 9.41755 11.5841 8.70917 11.5841 8.70917H11.5777C11.427 5.84734 10.1385 3.15941 7.99146 1.2281L7.98263 1.22018L7.97862 1.21622L7.97461 1.21227C7.56695 0.856771 7.12591 0.540336 6.65745 0.267239L6.61732 0.245869C6.57715 0.226727 6.53828 0.205048 6.50094 0.180968L6.50575 0.183342C6.44867 0.147827 6.3885 0.117368 6.32596 0.0923221L6.31713 0.0891562C6.277 0.0685777 6.23526 0.0527481 6.19192 0.0337526C6.14957 0.0133763 6.10337 0.00195779 6.05629 0.000230384C6.0092 -0.00149702 5.96227 0.00650482 5.9185 0.0237221C5.87474 0.0409393 5.83511 0.0669914 5.80216 0.100205C5.76921 0.133419 5.74367 0.173061 5.72718 0.216585L5.72638 0.218959C5.70306 0.533026 5.75703 0.847998 5.8837 1.13708L5.87888 1.12441C6.40783 2.44223 6.71525 3.9682 6.71525 5.56541C6.71525 6.51677 6.60608 7.4428 6.40061 8.33243L6.41666 8.24932C6.36796 8.43808 6.2738 8.61247 6.14217 8.7577C6.01055 8.90292 5.84534 9.0147 5.66056 9.08354L5.65253 9.08591C5.42674 9.10695 5.20028 9.05326 5.00887 8.9333C4.81746 8.81335 4.672 8.63396 4.59544 8.42345L4.59304 8.41632C4.57217 8.35934 4.54648 8.30631 4.53043 8.24457V8.23349C4.14355 6.87373 4.61792 4.83725 4.94941 3.70226C5.17175 2.8625 4.1267 3.70226 4.1267 3.70226H4.12268C3.9172 3.87322 3.69567 4.06635 3.4629 4.28005V4.27213C3.16833 4.53807 2.77904 4.9069 2.37852 5.32876C2.16181 5.55749 -0.726936 8.69176 0.173638 12.9729C1.06699 16.4601 4.22061 19 7.97541 19C12.0537 19 15.4224 16.0035 15.9409 12.122L15.9449 12.0817C15.9642 11.9242 15.9819 11.7675 15.9899 11.6115C15.9939 11.5625 15.9947 11.511 15.9971 11.4596C16.0396 9.92694 15.6417 8.41371 14.8493 7.09455L14.8702 7.13254H14.8678Z"
              fill="#FF6B00"/>
    </symbol>
    <symbol id="arrow" viewBox="0 0 24 25" fill="none" xmlns="http://www.w3.org/2000/svg">
        <path d="M10 17.5L15 12.5L10 7.5" stroke="black" stroke-width="2" stroke-linecap="round"
              stroke-linejoin="round"/>
    </symbol>
    <symbol id="bookmarks" viewBox="0 0 16 16" fill="none" xmlns="http://www.w3.org/2000/svg">
        <path d="M3.33398 14V3.33333C3.33398 2.96667 3.46465 2.65267 3.72598 2.39133C3.98732 2.13 4.3011 1.99956 4.66732 2H11.334C11.7007 2 12.0147 2.13067 12.276 2.392C12.5373 2.65333 12.6678 2.96711 12.6673 3.33333V14L8.00065 12L3.33398 14Z"
              fill="#848484"/>
    </symbol>
    <symbol id="comments" viewBox="0 0 16 16" fill="none" xmlns="http://www.w3.org/2000/svg">
        <path d="M8.00016 13.4004C11.3145 13.4004 14 11.1618 14 8.40039C14 5.63903 11.3145 3.40039 8.00016 3.40039C4.68582 3.40039 2.00032 5.63903 2.00032 8.40039C2.00032 9.49698 2.42434 10.5112 3.14259 11.3379C3.04163 11.6049 2.89164 11.8407 2.73299 12.0396C2.59453 12.2157 2.45319 12.3521 2.34934 12.4458C2.29742 12.4913 2.25416 12.5282 2.22531 12.551C2.21089 12.5623 2.19935 12.5708 2.19358 12.5737L2.18781 12.5794C2.02916 12.6958 1.95993 12.9004 2.02339 13.085C2.08685 13.2697 2.26281 13.4004 2.46184 13.4004C3.09067 13.4004 3.72527 13.2413 4.25314 13.0453C4.51852 12.9458 4.76659 12.835 4.98293 12.7214C5.86848 13.1532 6.89826 13.4004 8.00016 13.4004Z"
              fill="#848484"/>
    </symbol>
</svg>