<svg>
    <symbol id="date" viewBox="0 0 24 24" fill="none" xmlns="http://www.w3.org/2000/svg">
        <path d="M12.5 12.25H16.1111V16H12.5V12.25ZM17.5556 5.5H16.8333V4H15.3889V5.5H9.61111V4H8.16667V5.5H7.44444C6.65 5.5 6 6.175 6 7V17.5C6 18.325 6.65 19 7.44444 19H17.5556C18.35 19 19 18.325 19 17.5V7C19 6.175 18.35 5.5 17.5556 5.5ZM17.5556 7V8.5H7.44444V7H17.5556ZM7.44444 17.5V10H17.5556V17.5H7.44444Z"
              fill="black"/>
    </symbol>
    <symbol id="USD" viewBox="0 0 24 24" fill="none" xmlns="http://www.w3.org/2000/svg">
        <path d="M13.0742 1.51562V4.41602H11.5605V1.51562H13.0742ZM12.8887 17.4629V20.0801H11.3848V17.4629H12.8887ZM14.1582 14.2793C14.1582 13.9082 14.0866 13.5859 13.9434 13.3125C13.8066 13.0391 13.5755 12.7949 13.25 12.5801C12.931 12.3652 12.5013 12.1602 11.9609 11.9648C11.1211 11.6589 10.3854 11.3236 9.75391 10.959C9.1224 10.5879 8.63086 10.1289 8.2793 9.58203C7.93424 9.03516 7.76172 8.34505 7.76172 7.51172C7.76172 6.71094 7.94727 6.01758 8.31836 5.43164C8.69596 4.83919 9.22005 4.38346 9.89062 4.06445C10.5612 3.73893 11.3392 3.57617 12.2246 3.57617C12.9147 3.57617 13.5332 3.68034 14.0801 3.88867C14.6335 4.09049 15.1055 4.38672 15.4961 4.77734C15.8932 5.16797 16.196 5.64974 16.4043 6.22266C16.6191 6.78906 16.7266 7.43685 16.7266 8.16602H14.1484C14.1484 7.76237 14.1029 7.4043 14.0117 7.0918C13.9206 6.7793 13.7904 6.51562 13.6211 6.30078C13.4518 6.07943 13.2467 5.91341 13.0059 5.80273C12.7715 5.69206 12.5046 5.63672 12.2051 5.63672C11.7754 5.63672 11.4206 5.7181 11.1406 5.88086C10.8672 6.04362 10.6654 6.26497 10.5352 6.54492C10.4115 6.82487 10.3496 7.14714 10.3496 7.51172C10.3496 7.86328 10.4147 8.17253 10.5449 8.43945C10.6816 8.69987 10.9095 8.9375 11.2285 9.15234C11.554 9.36719 12 9.58529 12.5664 9.80664C13.4128 10.1191 14.1484 10.4642 14.7734 10.8418C15.3984 11.2129 15.8835 11.6686 16.2285 12.209C16.5736 12.7493 16.7461 13.4329 16.7461 14.2598C16.7461 15.1061 16.5508 15.8223 16.1602 16.4082C15.776 16.9941 15.2357 17.4401 14.5391 17.7461C13.8424 18.0521 13.0319 18.2051 12.1074 18.2051C11.515 18.2051 10.929 18.127 10.3496 17.9707C9.77018 17.8145 9.24284 17.5605 8.76758 17.209C8.29883 16.8509 7.92448 16.3789 7.64453 15.793C7.36458 15.2005 7.22461 14.4746 7.22461 13.6152H9.8125C9.8125 14.11 9.8776 14.5202 10.0078 14.8457C10.138 15.1712 10.3138 15.4316 10.5352 15.627C10.7565 15.8158 11.0039 15.9492 11.2773 16.0273C11.5508 16.1055 11.8275 16.1445 12.1074 16.1445C12.5632 16.1445 12.9408 16.0664 13.2402 15.9102C13.5462 15.7539 13.7741 15.5358 13.9238 15.2559C14.0801 14.9694 14.1582 14.6439 14.1582 14.2793Z"
              fill="black"/>
    </symbol>
    <symbol id="EUR" viewBox="0 0 24 24" fill="none" xmlns="http://www.w3.org/2000/svg">
        <path d="M14.5586 16.2617C14.9102 16.2617 15.252 16.2357 15.584 16.1836C15.916 16.1315 16.2318 16.0534 16.5312 15.9492L16.8145 17.9023C16.4368 17.9935 16.043 18.0651 15.6328 18.1172C15.2227 18.1693 14.806 18.1953 14.3828 18.1953C13.582 18.1953 12.8464 18.0781 12.1758 17.8438C11.5117 17.6094 10.9355 17.2611 10.4473 16.7988C9.95898 16.3301 9.57812 15.7507 9.30469 15.0605C9.03776 14.3639 8.9043 13.5534 8.9043 12.6289V9.31836C8.9043 8.36784 9.03776 7.53776 9.30469 6.82812C9.57812 6.11198 9.96224 5.51302 10.457 5.03125C10.9583 4.54948 11.5475 4.18815 12.2246 3.94727C12.9082 3.70638 13.6634 3.58594 14.4902 3.58594C14.8939 3.58594 15.2845 3.61523 15.6621 3.67383C16.0462 3.72591 16.4303 3.79753 16.8145 3.88867L16.5312 5.85156C16.2448 5.75391 15.9323 5.67578 15.5938 5.61719C15.2617 5.55859 14.9264 5.5293 14.5879 5.5293C14.0866 5.5293 13.6341 5.60417 13.2305 5.75391C12.8333 5.90365 12.4948 6.13151 12.2148 6.4375C11.9349 6.73698 11.7201 7.12435 11.5703 7.59961C11.4271 8.07487 11.3555 8.64128 11.3555 9.29883V12.6289C11.3555 13.2799 11.4303 13.8366 11.5801 14.2988C11.7363 14.7546 11.9544 15.1289 12.2344 15.4219C12.5143 15.7083 12.8496 15.9199 13.2402 16.0566C13.6374 16.1934 14.0768 16.2617 14.5586 16.2617ZM14.8516 8.86914V10.207H7.21484V8.86914H14.8516ZM14.8516 11.4863V12.8242H7.21484V11.4863H14.8516Z"
              fill="black"/>
    </symbol>
    <symbol id="BTC" viewBox="0 0 24 24" fill="none" xmlns="http://www.w3.org/2000/svg">
        <path d="M12.7373 4.7V1.7H14.0173V4.7H12.7373ZM10.0573 4.7V1.7H11.3373V4.7H10.0573ZM12.7373 19.96V16.96H14.0173V19.96H12.7373ZM10.0573 19.96V16.96H11.3373V19.96H10.0573ZM8.21734 18V3.72H11.4973C12.6173 3.72 13.5507 3.83333 14.2973 4.06C15.0573 4.28667 15.624 4.66 15.9973 5.18C16.384 5.7 16.5773 6.39333 16.5773 7.26C16.5773 7.82 16.484 8.32 16.2973 8.76C16.124 9.18667 15.8573 9.54667 15.4973 9.84C15.1507 10.12 14.7173 10.3133 14.1973 10.42V10.52C14.7307 10.6133 15.204 10.7867 15.6173 11.04C16.044 11.2933 16.3773 11.6533 16.6173 12.12C16.8707 12.5867 16.9973 13.1933 16.9973 13.94C16.9973 14.8067 16.8107 15.5467 16.4373 16.16C16.0773 16.76 15.5573 17.22 14.8773 17.54C14.1973 17.8467 13.384 18 12.4373 18H8.21734ZM11.8573 9.8C12.9507 9.8 13.6973 9.60667 14.0973 9.22C14.5107 8.82 14.7173 8.23333 14.7173 7.46C14.7173 6.67333 14.464 6.11333 13.9573 5.78C13.464 5.43333 12.6707 5.26 11.5773 5.26H10.0173V9.8H11.8573ZM10.0173 11.3V16.48H12.0973C13.204 16.48 13.9773 16.2333 14.4173 15.74C14.8573 15.2467 15.0773 14.6 15.0773 13.8C15.0773 13.2933 14.9773 12.8533 14.7773 12.48C14.5907 12.1067 14.2707 11.82 13.8173 11.62C13.364 11.4067 12.744 11.3 11.9573 11.3H10.0173Z"
              fill="black"/>
    </symbol>
</svg>